<?xml version="1.0" encoding="UTF-8"?>
<!DOCTYPE svg PUBLIC "-//W3C//DTD SVG 1.1//EN" "http://www.w3.org/Graphics/SVG/1.1/DTD/svg11.dtd">
<!-- Creator: CorelDRAW -->
<svg xmlns="http://www.w3.org/2000/svg" xml:space="preserve" width="84.2208mm" height="262.284mm" version="1.1" style="shape-rendering:geometricPrecision; text-rendering:geometricPrecision; image-rendering:optimizeQuality; fill-rule:evenodd; clip-rule:evenodd"
viewBox="0 0 8526.89 26554.77"
 xmlns:xlink="http://www.w3.org/1999/xlink"
 xmlns:xodm="http://www.corel.com/coreldraw/odm/2003">
 <defs>
  <style type="text/css">
   <![CDATA[
    .fil3 {fill:none}
    .fil1 {fill:none;fill-rule:nonzero}
    .fil2 {fill:#A1D9F7}
    .fil0 {fill:#2F318B}
   ]]>
  </style>
 </defs>
 <g id="圖層_x0020_1">
  <metadata id="CorelCorpID_0Corel-Layer"/>
  <g id="_105553172738624">
   <g>
    <path class="fil0" d="M1175.77 24179.56c377.01,33.55 197.92,-6.01 538.64,112.3 176.08,103 519.54,492.91 410.92,621.38 -17.33,20.5 -160.42,8.74 -161.42,8.76 -388.24,5.57 -8.52,-47.23 -385.37,-346.86 -334.02,-172.11 -617.48,-131.72 -891.07,123.99 -385.73,562.12 -157.57,1750.02 737.85,1418.72 96.29,-35.63 111.22,-55.89 192.59,-116.93 125.67,-132.65 145.93,-243.04 157.39,-403.31 -224.58,14.94 -638.33,53.17 -683.63,-56.2 -15.28,-36.89 -69.95,-369.7 91.75,-384.47 70.16,-6.4 996.05,-46.76 1043.09,66.81 1.97,4.77 50.09,1228.31 -52.89,1270.96 -16.02,6.63 -252.07,40.88 -281.77,-47.37l-42.7 -178.44c-82.23,81.19 -48.57,50.92 -204.49,159.27 -1234.94,553 -2012.59,-894.71 -1212.43,-1946.03 294.44,-255.12 355.82,-273.15 743.56,-302.58zm6146.8 1749.66c3.36,20.68 6.08,38.07 8.84,53.45 -3.68,-17.05 -6.67,-34.84 -8.84,-53.45l-251.89 5.65c28.29,194.5 38.87,228.31 164.02,384.57 263.53,235.82 912.83,209.87 1068.74,-170.53 199.62,-487.04 -330.23,-543.55 -658.55,-615.74 -141.72,-39.26 -75.98,-15 -198.41,-70.12 -544.49,-396.6 504.7,-843.48 708.23,-271.25l72.76 1.64c-8.53,-44.51 -25.81,-74.84 -64.48,-139.3 -210.61,-256.27 -715.76,-257.62 -912.26,-11.24 -349.52,438.24 252.35,609.24 555.65,689.17 307.27,80.98 503.74,302.15 208.9,485.13 -237.96,108.82 -496.55,95.76 -621.32,-84.82 321.62,337 946.55,-58.34 619.2,-264.17 -127.61,-48.55 -53.75,-23.82 -223.81,-68.21l-0.12 -0.03 -214.73 -48.71 -0.03 -0.01c-230.97,-64.66 -125.99,-25 -317.6,-112.71 -286.09,-216.68 -263.97,-497.38 -26.4,-758.03 792.69,-572.54 1438.75,375.89 1136.93,499.17 -40.26,16.44 -360.37,73.88 -390.93,-79.93 -12.65,-63.66 -4.14,-55.77 -39.49,-113.69 -94.26,-94.79 -313.79,-100.67 -426.22,-40.99 -213.24,181 255.55,273.52 344.71,297.37l0.04 0.02c302.46,93.76 169.21,38.88 404.59,153.15 271.67,212.99 205.36,533.35 -9.82,769.81 -422.33,301.15 -1210.15,188.91 -1192.05,-435.94 0.47,-15.87 253.94,-0.5 264.35,-0.26zm8.84 53.45c8.87,49.62 17.94,78.27 49.08,128.71 -21.76,-36.68 -38.45,-79.5 -49.08,-128.71zm49.08 128.71c3.81,6.15 7.93,12.63 12.42,19.5 -4.3,-6.3 -8.44,-12.8 -12.42,-19.5zm12.42 19.5l0.87 1.34 0.16 0.16 -1.03 -1.5zm-136.06 -492.33l-0.19 -0.09 0.49 0.31 -0.29 -0.22zm-26.4 -758.03l0.04 -0.04 -0.12 0.1 0.08 -0.06zm1029.65 715.09l0.14 0.07 -0.28 -0.18 0.14 0.11zm-9.82 769.81l-0.05 0.06 0.07 -0.07 -0.02 0.01zm-803.8 -902.37l-0.17 -0.08 0.37 0.23 -0.2 -0.15zm-1823.79 466.17c3.36,20.68 6.08,38.07 8.84,53.45 -3.68,-17.05 -6.67,-34.84 -8.84,-53.45l-251.89 5.65c28.29,194.5 38.87,228.31 164.02,384.57 263.53,235.82 912.83,209.87 1068.74,-170.53 199.62,-487.04 -330.23,-543.55 -658.55,-615.74 -141.72,-39.26 -75.98,-15 -198.41,-70.12 -544.49,-396.6 504.7,-843.48 708.23,-271.25l72.76 1.64c-8.53,-44.51 -25.81,-74.84 -64.48,-139.3 -210.61,-256.27 -715.76,-257.62 -912.26,-11.24 -349.52,438.24 252.35,609.24 555.65,689.17 307.27,80.98 503.74,302.15 208.9,485.13 -237.96,108.82 -496.55,95.76 -621.32,-84.82 321.62,337 946.55,-58.34 619.2,-264.17 -127.61,-48.55 -53.75,-23.82 -223.81,-68.21l-0.12 -0.03 -214.73 -48.71 -0.03 -0.01c-230.97,-64.66 -125.99,-25 -317.6,-112.71 -286.09,-216.68 -263.97,-497.38 -26.4,-758.03 792.69,-572.54 1438.75,375.89 1136.93,499.17 -40.26,16.44 -360.37,73.88 -390.93,-79.93 -12.65,-63.66 -4.14,-55.77 -39.49,-113.69 -94.26,-94.79 -313.79,-100.67 -426.22,-40.99 -213.24,181 255.55,273.52 344.71,297.37l0.04 0.02c302.46,93.76 169.21,38.88 404.59,153.15 271.67,212.99 205.36,533.35 -9.82,769.81 -422.33,301.15 -1210.15,188.91 -1192.05,-435.94 0.47,-15.87 253.94,-0.5 264.35,-0.26zm8.84 53.45c8.87,49.62 17.94,78.27 49.08,128.71 -21.76,-36.68 -38.45,-79.5 -49.08,-128.71zm49.08 128.71c3.81,6.15 7.93,12.63 12.42,19.5 -4.3,-6.3 -8.44,-12.8 -12.42,-19.5zm12.42 19.5l0.87 1.34 0.16 0.16 -1.03 -1.5zm-136.06 -492.33l-0.19 -0.09 0.49 0.31 -0.29 -0.22zm-26.4 -758.03l0.04 -0.04 -0.12 0.1 0.08 -0.06zm1029.65 715.09l0.14 0.07 -0.28 -0.18 0.14 0.11zm-9.82 769.81l-0.05 0.06 0.07 -0.07 -0.02 0.01zm-803.8 -902.37l-0.17 -0.08 0.37 0.23 -0.2 -0.15zm-1298.02 -1.46c77.12,-19.24 120.65,-59.07 137.21,-107.25 -2.69,10.2 -5.8,20.5 -9.26,30.92 -33.87,56.65 -63.28,63.64 -127.94,76.33l-427 64.46c-807.38,172.47 -503.58,1061.41 164.8,885 478.51,-126.29 323.4,-486.49 516.82,-82.52 58.55,74.11 131.37,63.09 220.47,53.59l22.48 -5.21 -1.02 -40.18c-479.7,-6.52 74.84,-1085.09 -307.23,-1372.76 -272.4,-144.99 -544.1,-147.87 -819.5,-12.2 -135.76,93.77 -153.92,178.73 -174.65,328.84l178.6 4.55c13.53,-71.35 21.15,-98.57 69.46,-169.95 152.98,-162.19 426.41,-141.08 607.84,-44.62 89.15,68.09 112.08,155.22 92.7,255.23 22.3,-175.63 -261.51,-422.72 -583.02,-239.69 -267.25,152.15 85.45,316.38 -410.85,273.07 -206.11,-17.99 118.1,-908.89 1011.04,-574.41 544.24,203.87 278.25,889.04 335.28,1377.11 92.5,15.65 176.76,-93.56 169.86,177.35 -5.44,213.61 -129.5,245.43 -349.83,194.05 -121.27,-28.28 -174.08,-93.73 -205.22,-184.62 -37.98,36.77 -38.43,29.93 -171.41,109.96 -307.37,104.66 -501.09,131.23 -758.62,-79.85 -195.63,-238.64 -204.6,-499.77 12.01,-728.6 254.54,-178.96 497.15,-157.84 807,-188.58zm137.21 -107.25c3.17,-9.23 5.33,-18.78 6.56,-28.54 -1.82,9.4 -4.01,18.92 -6.56,28.54zm-693.98 -239.15l0.1 -0.15 -0.16 0.21 0.06 -0.06zm-94.44 890.01c17.4,93.64 22.48,108.68 96.48,169.31l0 -0.01c237.2,127.29 584.4,-8.9 588.72,-341.15 0.13,-10.13 3.62,-53.74 7.46,-99.4l-15.61 3.89c-109.76,16.1 -55.01,10.12 -164.24,18.09l0.92 -0.11c-0.01,0 -164.49,6.78 -164.49,6.78l0.29 -0.04c-191.51,20.1 -319.83,30.37 -349.53,242.64zm0 0c-3.95,-116.15 19.5,-173.08 112.37,-244.22 133.5,-66.19 173.22,-72.9 306.24,-101.85 89.49,-19.48 200.98,-41.03 281.25,-85.18 293.45,-161.34 262.78,498.59 -110.51,671.78 -239,66.14 -585.56,95.68 -589.35,-240.53zm112.37 -244.22l0.07 -0.06 -0.16 0.1 0.09 -0.04zm-1161.05 -1524.81c35.79,-1.47 276.75,-29.98 280.33,0 13.79,115.64 131.53,2195.44 60.52,2266.44 -33.81,33.82 -418.73,86.56 -431.03,-71.59 0,0 89.7,-2183.34 90.18,-2194.85zm0 0l86.32 2101.12 85.69 -3.51 85.74 -2087.01 -257.76 -10.59zm-1170.13 338.97l-0.02 -0.01 0.05 0.03 -0.03 -0.02zm66.1 1853.04l-0.22 0.15 0.53 -0.28 -0.3 0.13zm-468.87 -2248.61l-214.36 22.46c-866.01,180.08 -1018.92,1337.86 -485.6,2006.53 168.19,122.39 246.18,183.85 463.19,218.69 982.84,157.79 863.23,-798.96 1067.31,-63.15l70.99 -1.02 -14.62 -1019.46 -778.37 11.18c0.23,19.37 0.24,28.56 -0.01,46.65 246.13,-11.89 668.74,-51.98 675.96,103.03 39.21,841.91 -980.95,1048.72 -1393.72,519.95 -74.27,-134.2 -94.96,-152.09 -133.95,-303.02 -348.69,-1349.64 1120.65,-1741.44 1400.98,-842.95l253.37 3.63c-138.92,-541.57 -357.14,-637.2 -911.18,-702.51zm-609.23 1844.86l-0.08 -0.09 0.13 0.19 -0.05 -0.1z"/>
   </g>
   <path class="fil1" d="M1175.77 24179.56c206.53,0 384.51,39.77 534.94,119.33 218.26,114.74 351.88,315.15 400.32,602.26l-294.25 0c-35.7,-160.13 -110.14,-276.91 -222.34,-350.35 -112.7,-73.43 -254.47,-109.64 -425.81,-109.64 -203.47,0 -374.3,75.98 -513.52,228.46 -138.7,152.47 -208.06,379.4 -208.06,681.3 0,261.1 57.11,473.24 171.85,636.93 114.22,164.21 300.87,245.8 559.93,245.8 198.37,0 362.58,-57.62 492.61,-172.36 129.53,-115.26 196.33,-300.88 199.39,-557.9l-687.42 0 0 -246.81 963.82 0 0 1174.43 -191.23 0 -71.9 -282.51c-100.46,110.66 -189.7,187.15 -267.21,229.99 -130.55,73.94 -296.29,110.66 -497.72,110.66 -260.08,0 -483.44,-84.14 -670.59,-252.43 -204.49,-211.11 -306.49,-500.78 -306.49,-869.47 0,-367.68 99.44,-659.89 298.83,-877.13 189.2,-207.04 434.48,-310.56 734.85,-310.56zm1572.9 56.61l269.26 0 0 2194.85 -269.26 0 0 -2194.85zm1048.68 1769.03c0,77.51 28.55,138.7 85.16,183.59 56.61,44.87 123.92,67.31 201.94,67.31 94.35,0 186.14,-21.92 274.87,-65.78 149.42,-72.41 223.87,-191.75 223.87,-356.97l0 -216.73c-32.63,20.91 -74.96,38.76 -126.98,52.53 -52.01,13.77 -102.5,23.96 -152.47,29.57l-162.68 20.91c-97.9,13.26 -170.83,33.66 -219.79,61.71 -82.61,46.41 -123.91,121.37 -123.91,223.87zm651.21 -543.61c61.7,-8.16 103.52,-34.17 124.43,-78.03 11.72,-23.96 17.85,-58.13 17.85,-103.01 0,-91.79 -32.64,-158.08 -97.91,-199.39 -65.27,-41.31 -158.6,-62.21 -280.48,-62.21 -140.23,0 -239.68,38.24 -298.33,113.72 -33.15,41.81 -54.56,104.03 -64.25,186.64l-251.41 0c5.1,-196.84 69.35,-334.03 192.25,-411.54 122.9,-77 265.69,-115.75 427.85,-115.75 188.18,0 341.16,35.69 458.96,107.59 116.27,71.9 174.4,183.08 174.4,334.53l0 922c0,28.04 6.13,50.49 17.34,67.32 11.73,16.83 35.7,25.49 72.41,25.49 12.24,0 25.5,-1.01 40.3,-2.55 15.3,-1.53 31.1,-3.56 47.93,-6.62l0 198.88c-41.81,11.72 -73.94,19.38 -95.36,22.44 -21.93,2.55 -52.01,4.08 -89.75,4.08 -92.81,0 -160.12,-32.64 -201.94,-98.42 -21.93,-34.69 -37.23,-84.14 -46.4,-147.89 -54.57,71.9 -133.11,134.12 -235.61,186.64 -103.01,53.03 -215.71,79.04 -339.62,79.04 -148.4,0 -269.26,-44.88 -363.6,-135.14 -93.83,-89.75 -141.26,-202.96 -141.26,-338.11 0,-148.39 46.4,-263.64 139.21,-345.23 92.3,-81.59 214.18,-132.08 364.62,-150.95l428.37 -53.55zm1174.12 467.63c8.16,89.25 30.6,158.08 67.32,206.02 67.82,86.7 185.12,130.04 352.38,130.04 99.95,0 187.66,-21.93 263.13,-65.27 75.98,-43.34 113.72,-110.15 113.72,-200.92 0,-68.34 -30.6,-120.87 -91.28,-156.56 -38.76,-21.92 -115.75,-47.42 -229.99,-76.49l-213.68 -53.55c-136.66,-34.16 -237.12,-71.9 -301.89,-113.72 -115.25,-72.41 -173.38,-173.38 -173.38,-301.89 0,-151.46 54.56,-273.85 163.69,-367.17 109.13,-93.83 256,-140.75 440.09,-140.75 241.21,0 414.6,70.89 521.18,212.15 66.81,89.75 99.44,186.64 97.41,290.17l-253.96 0c-5.1,-60.69 -26.52,-116.27 -64.25,-166.25 -61.71,-70.36 -168.8,-106.06 -321.28,-106.06 -101.48,0 -178.48,19.88 -231.01,58.64 -52.01,38.76 -78.54,89.75 -78.54,153.5 0,69.87 34.68,125.96 103.52,167.77 39.78,24.48 98.42,46.41 175.93,65.28l177.98 43.34c193.28,46.92 322.81,92.3 388.59,136.16 104.55,68.84 156.55,176.96 156.55,324.33 0,142.28 -54.05,265.18 -162.16,368.7 -108.11,104.03 -272.32,155.53 -493.64,155.53 -238.15,0 -406.44,-54.05 -505.88,-162.16 -98.93,-108.11 -151.97,-241.72 -159.11,-400.83l258.55 0zm1699.88 0c8.16,89.25 30.6,158.08 67.32,206.02 67.82,86.7 185.12,130.04 352.38,130.04 99.95,0 187.66,-21.93 263.13,-65.27 75.98,-43.34 113.72,-110.15 113.72,-200.92 0,-68.34 -30.6,-120.87 -91.28,-156.56 -38.76,-21.92 -115.75,-47.42 -229.99,-76.49l-213.68 -53.55c-136.66,-34.16 -237.12,-71.9 -301.89,-113.72 -115.25,-72.41 -173.38,-173.38 -173.38,-301.89 0,-151.46 54.56,-273.85 163.69,-367.17 109.13,-93.83 256,-140.75 440.09,-140.75 241.21,0 414.6,70.89 521.18,212.15 66.81,89.75 99.44,186.64 97.41,290.17l-253.96 0c-5.1,-60.69 -26.52,-116.27 -64.25,-166.25 -61.71,-70.36 -168.8,-106.06 -321.28,-106.06 -101.48,0 -178.48,19.88 -231.01,58.64 -52.01,38.76 -78.54,89.75 -78.54,153.5 0,69.87 34.68,125.96 103.52,167.77 39.78,24.48 98.42,46.41 175.93,65.28l177.98 43.34c193.28,46.92 322.81,92.3 388.59,136.16 104.55,68.84 156.55,176.96 156.55,324.33 0,142.28 -54.05,265.18 -162.16,368.7 -108.11,104.03 -272.32,155.53 -493.64,155.53 -238.15,0 -406.44,-54.05 -505.88,-162.16 -98.93,-108.11 -151.97,-241.72 -159.11,-400.83l258.55 0z"/>
   <path class="fil2" d="M1385.83 1715.18c-212.88,1307.5 -613.99,3897.67 -817.48,5249 -203.5,1351.33 -209.38,1463.8 -159.37,1687.14 50,223.34 155.89,557.51 257.41,871.61 101.52,314.09 198.68,608.08 531.59,924.19 332.91,316.1 901.57,654.3 1348.29,985.29 446.72,331 771.49,654.79 932.03,818.66 160.52,163.87 156.82,167.83 154.96,177.34 -1.86,9.51 -1.86,24.55 41.62,140.66 43.47,116.11 130.44,333.26 205.15,576.13 74.71,242.88 137.18,511.47 143.42,1351.59 6.25,840.13 -43.73,2251.78 -84.33,3251.18 -40.6,999.4 -71.83,1586.56 -128.21,1982.87 -56.38,396.31 -137.91,601.79 -228.11,774.37 -90.22,172.58 -189.11,312.28 -267.29,401.94 -78.17,89.67 -135.62,129.31 -197.36,176.25 -61.74,46.94 -127.79,101.17 -358.45,190.73 -230.67,89.57 -625.94,214.47 -1023.66,288.52 -397.72,74.06 -797.87,97.27 -1084.11,141.36 -286.25,44.09 -458.58,109.07 -517.58,195.18 -59.01,86.12 -4.68,193.38 191.65,270.47 196.31,77.11 534.64,124.06 1187.57,190.15 652.93,66.09 1620.47,151.31 2569.05,166.64 948.59,15.34 1878.23,-39.21 2561.66,-75.86 683.44,-36.64 1120.68,-55.38 1384.84,-120.39 264.16,-65 355.25,-176.27 377.11,-263.72 21.86,-87.44 -25.49,-151.07 -199.09,-223.49 -173.58,-72.41 -473.41,-153.62 -888.78,-250.44 -415.38,-96.81 -946.31,-209.24 -1377.31,-399.75 -430.99,-190.51 -762.05,-459.1 -952.56,-805.77 -190.51,-346.67 -240.48,-771.41 -265.46,-1333.58 -24.99,-562.16 -24.99,-1261.75 -25.47,-2009.32 -0.48,-747.56 -1.43,-1543.1 14.18,-2192.71 15.62,-649.61 47.81,-1153.3 93.88,-1582.86 46.08,-429.55 106.04,-784.97 271.47,-1006.74 165.42,-221.78 436.31,-309.9 779.01,-461.66 342.69,-151.77 757.2,-367.17 1156.02,-699.61 398.82,-332.44 781.96,-781.89 1028.25,-1210.06 246.3,-428.18 355.74,-835.06 372.4,-1331.79 16.65,-496.74 -59.47,-1083.3 -188.11,-2038.68 -128.63,-955.39 -309.77,-2279.61 -445.78,-3318.39 -136,-1038.79 -226.88,-1792.14 -292.46,-2216.89 -65.59,-424.75 -105.88,-520.88 -285.32,-612.67 -179.43,-91.8 -497.99,-179.25 -1032.05,-244.83 -534.05,-65.59 -1283.61,-109.31 -2028.34,-81.24 -744.73,28.08 -1484.64,127.95 -1899.3,191.92 -414.67,63.96 -504.09,92.02 -561.1,118.47 -57.02,26.45 -81.63,51.29 -294.5,1358.8z"/>
   <g id="杯子">
    <g>
     <path class="fil0" d="M1592.19 357.99c1170.52,-390.39 1894.98,-341.78 3108.37,-357.39 527.97,-6.79 1824.24,43.7 2267.52,215.41 243.93,94.49 492.31,184.9 218.65,448.15 -245.93,236.58 -2078.83,344.99 -2494.13,327.9 -830.81,-34.17 -2223.93,-27.4 -2946.59,-410.64 -79.37,-42.09 -114.23,-125.97 -145.68,-131.17 13.71,1.77 36.72,25.94 41.91,31.44 270.89,287.25 1307.27,368.62 1662.72,384.84 1418.18,64.7 2042.6,-0.02 3426.32,-234.87l306.46 -98.33c16.73,-21.47 28.89,-36.86 40.63,-53.88 -73.44,-36.5 -202.92,-98.59 -203.53,-98.86 -371.59,-157.44 -1710.12,-259.44 -2174.28,-269.61 -1210.91,-26.56 -1927.2,-101.4 -3108.37,247.02z"/>
    </g>
    <path class="fil3" d="M1592.19 357.99c580.69,-222.5 1242.78,-282.2 1242.78,-282.2l906.3 -10.85c0,0 1058.25,-16.28 1215.63,-5.43 157.38,10.85 672.94,54.27 672.94,54.27l803.19 59.69c0,0 325.61,32.57 488.42,124.82 162.81,92.25 287.63,108.52 282.2,157.37 -5.43,48.85 -108.53,162.81 -108.53,162.81l-341.9 103.12 -1036.54 157.37c0,0 -558.98,75.98 -754.35,65.13 -195.37,-10.85 -1191.21,-21.72 -1191.21,-21.72 0,0 -890.02,-37.99 -1074.54,-81.4 -184.52,-43.41 -607.82,-124.82 -662.09,-157.38 -54.27,-32.56 -303.9,-81.39 -358.17,-157.37 -54.28,-75.98 -75.98,-75.98 -75.98,-75.98"/>
    <g>
     <path class="fil0" d="M1489.77 595.74l-526.3 3334.5 -0.06 0.37 -319.13 2185.25 -0.16 1.1c-178.41,1273.09 -494.1,3020.13 415.02,4069.47 833.25,961.78 2068.4,1027.43 2736.31,2643.9 348.62,843.72 192.02,2273.78 157.64,3197.31 -42.54,1142.88 -95.58,2286.55 -154.82,3428.71 41.39,-1295.93 75.61,-2594.56 93.92,-3890.94 14.11,-999.48 150.55,-2069.56 -364.92,-2973.36 -676.17,-1185.54 -1425.69,-1229.95 -2314.5,-1977.26 -1113.02,-935.84 -981.82,-2438.39 -801.6,-3738.62 285.7,-2061.36 713.71,-4233.78 1078.6,-6280.44z"/>
    </g>
    <path class="fil3" d="M1489.77 595.74l-559.47 3329.31 -341.06 2183.34c-63.4,467.06 -298.34,1585.64 -165.7,2894.42 64.19,633.34 455.62,1211.49 852.44,1534.3 501.86,408.28 1163.61,710.52 1599.87,1120.95 458.77,431.59 1079.58,1220.52 1079.58,2244.89 0,1886.06 -157.17,5553.41 -157.17,5553.41"/>
    <g>
     <path class="fil0" d="M3619.42 20284.12c-543.96,1867.84 -3949.94,1106.13 -3503.42,1783.34 31.13,47.22 210.85,107.34 272.92,133.75 813.79,133.2 3140.99,359.83 3909,311.4 362.56,-22.86 4086.76,-229.73 4023.34,-476.65 -79.31,-308.78 -1141.34,-359.75 -1141.34,-359.75 -1179.51,-268.4 -2257.39,-389.58 -2524.99,-1833.26 -51.17,-276.07 -38.87,-372.41 -41.32,-658.94l-0.03 2.78c-9.78,-1394.88 -1.53,-2433.18 36.45,-3849.74 0.66,-24.33 -91.43,-2153.25 255.79,-2692.68 11.11,-17.24 14.92,-21.64 31.36,-32.31 -103.61,69.76 -189.17,641.36 -203.05,724.05 -48.77,290.5 -54.76,3516.05 -58.5,3878 11.74,503.99 -12.23,2071.83 95.85,2606.28 277.3,1371.21 1318.95,1450.33 2445.34,1687.23 0,0 1575.45,91.72 1271,650.91 -182.56,335.33 -1893.46,362.85 -2314.56,390.61 -1132.27,74.67 -1955.31,151.44 -3096.2,43.27 -422.41,-40.04 -2838.08,-199.43 -3019.84,-485 -545.56,-857.18 2974.66,77.87 3562.18,-1823.29z"/>
    </g>
    <path class="fil3" d="M3619.42 20284.12c0,0 -242.37,997.68 -1560.44,1211.61 -1326.21,215.26 -1878.57,238.23 -1963.62,345.76 -85.05,107.53 -32.3,257.64 39.93,289.51l240.25 106.05c168.43,61.87 3340.34,374.39 3670.31,359.29 299.37,-13.71 3941.66,-211.69 4245.67,-385.48 304.01,-173.79 -18.55,-383.72 -89.84,-399.32l-2006.61 -439.26c0,0 -1597.3,-264.56 -1527.42,-2186.31l-29.95 -1971.66 69.88 -3753.67c0,0 119.79,-798.66 229.61,-848.57"/>
    <g>
     <path class="fil0" d="M5623.81 11950.87c1447.39,-722.21 2900.69,-1991.64 2731.99,-3763.58 -65.44,-687.28 -205.05,-1480.33 -289.13,-2191.02 -211.64,-1788.91 -435.18,-3578.16 -664.43,-5364.88 153.74,954.77 305.07,1910.04 454.6,2865.48 222.81,1423.64 570.16,3265.34 658.67,4671.27 115.37,1832.36 -1369.6,3083.24 -2891.69,3782.74z"/>
    </g>
    <path class="fil3" d="M5623.81 11950.87c0,0 3100.24,-1369.87 2811.84,-3773.16 -288.39,-2403.29 -1033.41,-7546.33 -1033.41,-7546.33"/>
    <g>
     <path class="fil0" d="M2293.16 2949.2c622.94,-205.2 1649.22,-456.73 2274.19,-99.17 485.62,277.85 1237.23,666.38 1816.76,446.48 100.7,-38.21 151.16,-78.67 199.3,-170.56 -246.34,593.83 -1705.64,128.43 -2129.58,-109.72 -645.41,-362.57 -1472.47,-227.18 -2160.68,-67.03z"/>
    </g>
    <path class="fil3" d="M2293.16 2949.2c0,0 1558.64,-465.99 2217.44,-16.07 658.8,449.92 1912.13,626.66 2072.82,192.82"/>
   </g>
  </g>
 </g>
</svg>
