<?xml version="1.0" encoding="UTF-8"?>
<!DOCTYPE svg PUBLIC "-//W3C//DTD SVG 1.1//EN" "http://www.w3.org/Graphics/SVG/1.1/DTD/svg11.dtd">
<!-- Creator: CorelDRAW -->
<svg xmlns="http://www.w3.org/2000/svg" xml:space="preserve" width="183.786mm" height="121.792mm" version="1.1" style="shape-rendering:geometricPrecision; text-rendering:geometricPrecision; image-rendering:optimizeQuality; fill-rule:evenodd; clip-rule:evenodd"
viewBox="0 0 18364.39 12169.78"
 xmlns:xlink="http://www.w3.org/1999/xlink"
 xmlns:xodm="http://www.corel.com/coreldraw/odm/2003">
 <defs>
  <style type="text/css">
   <![CDATA[
    .str0 {stroke:#332D2B;stroke-width:99.92;stroke-miterlimit:22.9256}
    .fil6 {fill:none}
    .fil2 {fill:#484443}
    .fil0 {fill:#332D2B}
    .fil1 {fill:#8A7870}
    .fil5 {fill:#503C32}
    .fil3 {fill:url(#id0)}
    .fil4 {fill:url(#id1)}
   ]]>
  </style>
  <linearGradient id="id0" gradientUnits="userSpaceOnUse" x1="9182.2" y1="2378.17" x2="9182.2" y2="10634.28">
   <stop offset="0" style="stop-opacity:1; stop-color:#E09473"/>
   <stop offset="1" style="stop-opacity:1; stop-color:#433A38"/>
  </linearGradient>
  <linearGradient id="id1" gradientUnits="userSpaceOnUse" x1="5076.65" y1="4560.52" x2="13286.54" y2="4560.52">
   <stop offset="0" style="stop-opacity:1; stop-color:#CACACB"/>
   <stop offset="1" style="stop-opacity:1; stop-color:#706E6E"/>
  </linearGradient>
 </defs>
 <g id="圖層_x0020_1">
  <metadata id="CorelCorpID_0Corel-Layer"/>
  <g id="coffee">
   <g id="盘子">
    <path class="fil0" d="M18363.07 10266.72c0.88,10.61 1.32,21.25 1.32,31.92 0,608.05 -4111.01,1100.98 -9182.2,1100.98 -5071.19,0 -9182.2,-492.93 -9182.2,-1100.98 0,-10.66 0.44,-21.3 1.32,-31.92l2.79 0c-2.52,10.6 -4.11,21.23 -4.11,31.92 0,1033.39 4111.01,1871.14 9182.2,1871.14 5071.19,0 9182.2,-837.75 9182.2,-1871.14 0,-10.68 -1.59,-21.31 -4.11,-31.92l2.79 0z"/>
    <path class="fil1" d="M11322.87 9227.81c4038.58,115.65 7041.52,551.16 7041.52,1070.83 0,608.05 -4111.01,1100.98 -9182.2,1100.98 -5071.19,0 -9182.2,-492.93 -9182.2,-1100.98 0,-519.67 3002.94,-955.18 7041.51,-1070.83 216.66,175.26 446.56,324.79 687.28,445.22l0 488.22c0,117.22 116.57,146.63 213.11,213.11 330.22,227.41 801.24,259.91 1207.27,259.91 420.82,0 906.63,-86.63 1273.31,-259.91 105.98,-50.08 213.11,-95.9 213.11,-213.11l0 -488.22c240.71,-120.44 470.61,-269.96 687.28,-445.22z"/>
    <path class="fil2" d="M10635.6 10100.54c1694.51,71.78 2908.73,265.5 2908.73,493.26 0,288.87 -1952.99,523.03 -4362.14,523.03 -2409.14,0 -4362.14,-234.17 -4362.14,-523.03 0,-227.75 1214.22,-421.47 2908.72,-493.26l0 60.71c0,117.22 116.57,146.63 213.11,213.11 330.22,227.41 801.24,259.91 1207.27,259.91 420.82,0 906.63,-86.63 1273.31,-259.91 105.98,-50.08 213.11,-95.9 213.11,-213.11l0 -60.71z"/>
   </g>
   <g id="杯子">
    <g id="把子">
     <path class="fil1" d="M13248.53 3842.93c807.26,160.63 1408.9,781.62 1408.9,1523.2 0,847.67 -786.09,1537.73 -1766.82,1562.83 43.15,-119.62 83.06,-241.66 119.63,-365.91 693.76,-73.92 1230.71,-581.6 1230.71,-1196.92 0,-533.35 -403.44,-985.79 -962.71,-1145.02 -6.61,-127.32 -16.55,-253.42 -29.7,-378.18zm36.88 948.9c0.32,-11.84 0.59,-23.7 0.85,-35.55 -0.26,11.86 -0.53,23.71 -0.85,35.55zm2.49 -158.57c0.06,-11.85 0.09,-23.7 0.09,-35.57 0,11.87 -0.03,23.72 -0.09,35.57z"/>
    </g>
    <path class="fil3" d="M10635.6 9673.03l0 488.22c0,117.22 -107.14,163.03 -213.11,213.11 -366.69,173.28 -852.49,259.91 -1273.31,259.91 -406.03,0 -877.05,-32.49 -1207.27,-259.91 -96.55,-66.49 -213.11,-95.9 -213.11,-213.11l0 -488.22c-1550.15,-775.58 -2652.38,-2755.21 -2652.38,-5075.34 0,-790.79 128.15,-1541.98 358.31,-2219.52l0.06 0c-1.75,10.88 -2.95,21.79 -2.95,32.76 0,63.95 30.34,126.26 87.39,186.26l0.07 0.07c5.72,6.01 11.68,11.97 17.94,17.94l0.32 0.3c44.08,41.96 101.4,82.71 170.9,122.02l1.26 0.7c69.15,39 150.29,76.6 242.35,112.52l4.12 1.61c12.45,4.85 25.14,9.65 37.99,14.43l2.28 0.84c13.28,4.93 26.76,9.82 40.47,14.68l0.73 0.26c56.42,19.98 116.3,39.39 179.47,58.18l1.52 0.46c13.83,4.1 27.85,8.16 41.99,12.21l9.75 2.8c13.76,3.91 27.69,7.78 41.73,11.63l9.21 2.51c14.05,3.82 28.21,7.63 42.54,11.39l11.51 2.99c14.26,3.71 28.61,7.41 43.16,11.07l6.18 1.53c48.85,12.22 99.21,24.11 151.01,35.67l8.38 1.89c14.39,3.19 28.97,6.34 43.58,9.47l16.95 3.65c13.79,2.93 27.72,5.82 41.71,8.69l20.53 4.21c13.49,2.74 27.06,5.45 40.72,8.14l22.38 4.36c13.76,2.67 27.55,5.35 41.48,7.96l19.5 3.62c15.28,2.84 30.6,5.7 46.08,8.48l4.67 0.82c36.34,6.52 73.24,12.88 110.63,19.11l11 1.85c13.54,2.23 27.23,4.42 40.9,6.6l28.99 4.64c12.37,1.95 24.85,3.85 37.33,5.77l33.2 5.05c13.19,1.98 26.46,3.93 39.77,5.87l28.79 4.15c14.14,2.02 28.33,4.02 42.61,6l32.79 4.48c12.43,1.69 24.85,3.38 37.38,5.03 13.02,1.72 26.16,3.39 39.25,5.07 11.98,1.53 23.92,3.09 35.99,4.6l0.52 0.07c23.04,2.87 46.19,5.71 69.55,8.46l0.27 0.03 32.01 3.7c14.94,1.73 29.87,3.46 44.92,5.15 11.95,1.34 24.01,2.64 36.04,3.95 13.19,1.44 26.38,2.88 39.64,4.28l39.44 4.08 40.17 4.06 36.71 3.59 43.93 4.15 35.96 3.31c15.5,1.4 31.11,2.74 46.7,4.1l33.37 2.89c22.77,1.91 45.68,3.75 68.65,5.57l11.15 0.91 0.68 0.05 3.09 0.23c25.61,1.99 51.3,3.93 77.17,5.79l34.26 2.39c16.3,1.14 32.6,2.28 48.99,3.37l36.92 2.38 46.8 2.93 38.22 2.26 47.01 2.65 38.33 2.06c16.42,0.86 32.9,1.68 49.39,2.49l35.7 1.73c18.52,0.86 37.12,1.66 55.73,2.47l31.12 1.35c28.31,1.16 56.72,2.24 85.25,3.25l21.53 0.72c22.41,0.77 44.85,1.5 67.39,2.17l28.51 0.8c20.05,0.56 40.13,1.11 60.28,1.6l33.77 0.77c17.91,0.4 35.84,0.76 53.83,1.1l38.63 0.69c17.76,0.29 35.56,0.54 53.39,0.77l35.65 0.45c19.76,0.22 39.6,0.38 59.43,0.53l31.07 0.24c30.16,0.17 60.37,0.26 90.7,0.26 30.33,0 60.56,-0.08 90.7,-0.26l31.07 -0.24c19.84,-0.16 39.67,-0.32 59.43,-0.53l35.65 -0.45 53.39 -0.77 38.63 -0.69 53.83 -1.1 33.77 -0.77c20.14,-0.49 40.22,-1.03 60.28,-1.6l28.51 -0.8c22.53,-0.67 44.98,-1.41 67.39,-2.17l21.53 -0.72c28.52,-1.02 56.96,-2.08 85.25,-3.25l31.12 -1.35c18.61,-0.8 37.21,-1.61 55.73,-2.47l35.7 -1.73c16.5,-0.81 32.98,-1.63 49.39,-2.49l38.33 -2.06 47.01 -2.65 38.22 -2.26 46.8 -2.93 36.92 -2.38c16.39,-1.09 32.68,-2.24 48.99,-3.37l34.26 -2.39c25.84,-1.87 51.58,-3.79 77.17,-5.79l3.09 -0.23 0.68 -0.05 11.15 -0.91c22.97,-1.82 45.88,-3.66 68.65,-5.57l33.37 -2.89c15.6,-1.35 31.21,-2.7 46.7,-4.1l35.96 -3.31 43.93 -4.15 36.71 -3.59 40.17 -4.06c13.18,-1.35 26.34,-2.69 39.44,-4.08l39.64 -4.28c12.03,-1.31 24.09,-2.61 36.04,-3.95 15.06,-1.69 29.97,-3.42 44.92,-5.15 10.67,-1.23 21.4,-2.44 32.01,-3.7l0.27 -0.03c23.32,-2.77 46.54,-5.58 69.55,-8.46l0.52 -0.07 35.99 -4.6c13.11,-1.68 26.24,-3.35 39.25,-5.07 12.53,-1.65 24.94,-3.35 37.38,-5.03l32.79 -4.48c14.28,-1.97 28.46,-3.98 42.61,-6l28.79 -4.15c13.32,-1.94 26.58,-3.89 39.77,-5.87l33.2 -5.05c12.48,-1.91 24.96,-3.82 37.33,-5.77l28.99 -4.64c13.68,-2.2 27.37,-4.38 40.9,-6.6l11 -1.85c37.39,-6.23 74.29,-12.58 110.63,-19.11l4.67 -0.82c15.49,-2.8 30.79,-5.64 46.08,-8.48l19.5 -3.62c13.93,-2.63 27.72,-5.3 41.48,-7.96l22.38 -4.36c13.66,-2.69 27.23,-5.41 40.72,-8.14l20.53 -4.21c13.99,-2.88 27.92,-5.77 41.71,-8.69l16.95 -3.65c14.61,-3.14 29.19,-6.29 43.58,-9.47l8.38 -1.89c51.79,-11.55 102.16,-23.44 151.01,-35.67l6.18 -1.53c14.54,-3.66 28.89,-7.35 43.16,-11.07l11.51 -2.99c14.33,-3.77 28.49,-7.57 42.54,-11.39l9.21 -2.51c14.05,-3.85 27.97,-7.72 41.73,-11.63l9.75 -2.8c14.14,-4.05 28.17,-8.1 41.99,-12.21l1.52 -0.46c63.18,-18.79 123.06,-38.2 179.47,-58.18l0.73 -0.26c13.71,-4.86 27.17,-9.75 40.47,-14.68l2.28 -0.84c12.86,-4.78 25.52,-9.58 37.99,-14.43l4.12 -1.61c92.07,-35.91 173.21,-73.5 242.35,-112.52l1.26 -0.7c69.51,-39.31 126.81,-80.07 170.9,-122.02l0.32 -0.3c6.25,-5.96 12.23,-11.93 17.94,-17.94l0.07 -0.07c57.05,-60 87.39,-122.31 87.39,-186.26 0,-10.97 -1.2,-21.88 -2.95,-32.76l0.06 0c230.16,677.53 358.31,1428.73 358.31,2219.52 0,2320.13 -1102.24,4299.76 -2652.39,5075.34z"/>
    <path class="fil4" d="M5076.65 4539.8c1.59,-201.11 11.46,-399.6 29.2,-594.9 929.5,307.45 2286.99,745.46 3956.91,745.46 1669.92,0 3274.21,-473.68 4187.8,-828.04 19.87,193.73 32.02,390.69 35.98,590.35 -908.95,362.31 -2546.02,806.05 -4235.84,806.05 -1689.82,0 -3045.36,-405.95 -3974.05,-718.93z"/>
    <g id="杯面">
     <ellipse class="fil1" cx="9182.2" cy="2390.96" rx="3750.37" ry="865.25"/>
     <path class="fil0" d="M12845.17 2577.21c-369.29,388.34 -1868.88,679 -3662.98,679 -1794.1,0 -3293.68,-290.66 -3662.98,-679 369.29,-388.34 1868.88,-679 3662.98,-679 1794.1,0 3293.68,290.66 3662.98,679z"/>
     <ellipse class="fil5" cx="9182.2" cy="2693.52" rx="1620.52" ry="373.87"/>
    </g>
   </g>
   <g id="热气">
    <path class="fil6 str0" d="M9190.13 42.68c-361.18,219.85 -722.37,439.71 -573.19,612.45 149.18,172.74 808.74,298.36 724.99,397.82 -83.76,99.45 -910.81,172.74 -827.06,227.7 83.76,54.96 1078.31,91.6 1083.55,154.42 5.24,62.81 -978.86,151.79 -965.77,214.61 13.08,62.81 1023.36,99.45 1214.42,151.8 191.06,52.34 -437.09,120.39 -748.54,159.65 -311.46,39.26 -306.22,49.73 -300.99,60.2"/>
    <path class="fil6 str0" d="M7902.77 149.89c-361.18,219.85 -722.37,439.71 -573.19,612.45 149.18,172.74 808.74,298.36 724.99,397.82 -83.76,99.45 -910.81,172.74 -827.06,227.7 83.76,54.96 1078.31,91.6 1083.55,154.42 5.24,62.81 -978.86,151.79 -965.77,214.61 13.08,62.81 1023.36,99.45 1214.42,151.8 191.06,52.34 -437.09,120.39 -748.54,159.65 -311.46,39.26 -306.22,49.73 -300.99,60.2"/>
    <path class="fil6 str0" d="M10812.31 111.94c-361.18,219.85 -722.37,439.71 -573.19,612.45 149.18,172.74 808.74,298.36 724.99,397.82 -83.76,99.45 -910.81,172.74 -827.06,227.7 83.76,54.96 1078.31,91.6 1083.55,154.42 5.24,62.81 -978.86,151.79 -965.77,214.61 13.08,62.81 1023.36,99.45 1214.42,151.8 191.06,52.34 -437.09,120.39 -748.54,159.65 -311.46,39.26 -306.22,49.73 -300.99,60.2"/>
   </g>
  </g>
 </g>
</svg>
