<?xml version="1.0" encoding="UTF-8"?>
<!DOCTYPE svg PUBLIC "-//W3C//DTD SVG 1.1//EN" "http://www.w3.org/Graphics/SVG/1.1/DTD/svg11.dtd">
<!-- Creator: CorelDRAW -->
<svg xmlns="http://www.w3.org/2000/svg" xml:space="preserve" width="159.911mm" height="53.0003mm" version="1.1" style="shape-rendering:geometricPrecision; text-rendering:geometricPrecision; image-rendering:optimizeQuality; fill-rule:evenodd; clip-rule:evenodd"
viewBox="0 0 15976.85 5295.31"
 xmlns:xlink="http://www.w3.org/1999/xlink"
 xmlns:xodm="http://www.corel.com/coreldraw/odm/2003">
 <defs>
  <style type="text/css">
   <![CDATA[
    .fil0 {fill:#00A3E9}
   ]]>
  </style>
 </defs>
 <g id="圖層_x0020_1">
  <metadata id="CorelCorpID_0Corel-Layer"/>
  <g id="_105553236488672">
   <path class="fil0" d="M-0 1368.45c1382,-470.54 2752.81,-816.82 4107.65,-1042.53 1354.82,-225.71 2700.08,-332.98 4029.36,-325.55 1329.27,7.43 2648.98,129.58 3954.27,359.01 1305.32,229.43 2601.03,568.26 3885.58,1009.07 0,251.21 0,502.93 0,754.14 0,251.21 0,502.41 0,753.08 0,251.21 0,502.94 0,754.15l0 606.76c-51.13,-16.94 -83.09,-70.95 -100.66,-159.38 -9.58,-52.95 -15.98,-135.55 -20.77,-245.16 -3.2,-130.25 -6.38,-259.99 -7.98,-389.71 -6.39,-169.44 -28.76,-291.23 -73.49,-368 -43.14,-76.78 -105.45,-140.85 -190.13,-191.69 95.86,-65.65 170.96,-151.96 225.28,-259.98 52.72,-106.44 79.88,-245.16 79.88,-418.84 0,-331.47 -102.25,-584.05 -305.16,-760.9 -107.04,-95.32 -242.84,-165.2 -407.41,-208.09 -335.51,-85.78 -669.43,-169.97 -1003.35,-249.93 0,301.29 0,603.1 0,904.39 0,300.76 0,602.57 0,903.86 0,301.28 0,602.57 0,903.86 0,300.75 0,602.57 0,903.86 97.46,-15.36 194.92,-30.18 293.98,-45.54 0,-249.93 0,-500.38 0,-750.31 0,-249.93 0,-500.37 0,-750.83 222.07,3.71 444.15,7.41 667.82,11.12 119.83,1.59 207.7,22.77 263.62,60.36 97.45,69.37 150.18,203.33 156.57,401.9 6.39,168.38 12.78,336.76 19.17,504.61 3.2,118.08 7.98,196.44 14.38,236.69 6.39,40.24 12.78,73.07 22.37,97.43 119.82,-21.71 239.66,-42.89 365.87,-65.13l0 81.72c-1313.3,302.19 -2631.39,530.04 -3952.68,682.45 -1321.28,152.41 -2647.37,229.43 -3978.24,229.95 -1330.87,0.53 -2668.14,-74.88 -4008.6,-226.24 -1340.45,-151.36 -2687.3,-380.26 -4037.34,-686.17 0,-250.67 0,-501.87 0,-753.08 0,-251.21 0,-502.94 0,-754.15 0,-250.67 0,-501.87 0,-753.08l0 -674.91c108.63,-29.65 222.07,-60.37 337.11,-91.61 102.25,217.1 209.87,440.84 309.94,673 102.83,238.56 207.7,484.5 311.55,737.6 102.25,-270.58 209.59,-548.47 309.95,-832.91 102.54,-290.59 207.69,-589.34 311.54,-893.8 113.44,-26.48 228.48,-54.01 345.1,-82.08 -70.3,197.5 -138.96,392.38 -207.69,584.58 -67.05,187.45 -136,374.83 -204.51,558.62 -67.28,180.49 -137.22,359.08 -204.5,535.86 -65.32,171.63 -135.81,342.58 -202.91,510.43 0,223.98 0,447.96 0,671.94 0,223.45 0,447.43 0,670.88 -99.06,-16.42 -196.51,-32.3 -293.98,-49.25 0,-215.51 0,-431.02 0,-646.52 0,-214.98 0,-431.02 0,-646.52 -68.7,-157.79 -138.99,-312.94 -206.1,-465.43 -65.49,-148.79 -135.01,-295.09 -202.91,-438.43 -66.29,-139.94 -136.02,-277.88 -202.91,-411.42 -65.71,-131.2 -135.8,-259.46 -199.7,-384.95l0 -79.23zm2342.2 -504.28c115.04,-25.95 230.06,-50.83 346.7,-75.19 91.07,249.4 183.76,503.03 273.2,760.89 91.09,262.63 185.25,529.54 274.8,800.09 90.98,274.83 182.67,553.7 271.61,837.14 90,286.82 182.14,577.16 273.21,871.56 0,-290.17 0,-580.86 0,-871.03 0,-290.7 0,-581.39 0,-871.56 0,-290.7 0,-580.86 0,-871.56 0,-290.17 0,-580.86 0,-871.56 92.67,-17.47 185.33,-33.89 279.59,-50.31 0,365.35 0,731.25 0,1096.6 0,364.83 0,731.25 0,1096.07 0,365.89 0,731.25 0,1096.07 0,365.36 0,731.25 0,1096.6 -110.24,-12.18 -220.47,-25.95 -329.12,-38.66 -92.67,-298.63 -187.2,-593.49 -279.6,-883.74 -91.33,-286.89 -183.75,-570.8 -276.39,-849.85 -91.07,-274.27 -185.4,-545.89 -276.4,-812.26 -89.53,-262.08 -185.33,-519.45 -276.4,-773.08 0,264.22 0,528.98 0,793.2 0,264.22 0,528.97 0,793.19 0,264.22 0,528.98 0,793.2 0,264.21 0,528.44 0,792.66 -94.26,-12.71 -188.52,-25.42 -281.19,-39.19 0,-318.23 0,-636.99 0,-954.69 0,-318.24 0,-636.47 0,-954.7 0,-318.24 0,-636.99 0,-954.7 0,-317.7 0,-636.46 0,-955.22zm4542.22 -687.3c0,196.97 0,393.95 0,590.39 -246.04,13.77 -488.89,29.65 -730.14,47.13 0,356.88 0,713.77 0,1070.13 0,356.35 0,713.24 0,1069.6 0,356.88 0,713.24 0,1069.6 0,356.36 0,713.24 0,1069.6 -100.66,-5.82 -199.71,-11.65 -298.77,-19.58 0,-352.66 0,-705.83 0,-1058.49 0,-352.65 0,-705.3 0,-1058.48 0,-352.12 0,-705.83 0,-1058.48 0,-352.13 0,-705.83 0,-1058.48 -242.84,21.71 -485.7,46.59 -728.54,72.54 0,-185.32 0,-370.12 0,-555.44 584.75,-74.13 1169.51,-133.97 1757.45,-180.03zm752.51 -32.83c0,257.87 0,515.74 0,773.6 0,257.34 0,515.21 0,772.55 0,257.87 0,515.74 0,773.6 0,257.34 0,515.21 0,772.55 0,363.77 28.75,666.12 87.87,907.04 87.87,363.24 234.86,544.85 442.57,543.8 247.64,-2.65 416.99,-201.21 506.46,-593.57 47.94,-214.45 71.9,-499.85 71.9,-859.91 0,-256.28 0,-513.09 0,-769.37 0,-256.28 0,-513.08 0,-769.89 0,-256.28 0,-512.56 0,-768.84 0,-256.28 0,-513.08 0,-769.89 100.66,3.71 198.11,7.94 298.77,14.3 0,231.92 0,464.38 0,696.3 0,231.92 0,463.84 0,695.23 0,231.92 0,463.85 0,695.24 0,231.92 0,463.85 0,695.24 0,305.53 -10.39,575.53 -27.17,810.14 -16.77,234.51 -46.33,434.72 -81.48,600.46 -131.01,603.1 -380.25,910.75 -746.12,917.63 -364.27,1.59 -611.91,-303.41 -742.92,-906.51 -35.15,-165.21 -63.95,-366.95 -81.49,-602.05 -17.6,-236.15 -25.56,-508.85 -25.56,-815.96 0,-232.98 0,-466.49 0,-700.01 0,-233.51 0,-467.02 0,-700.54 0,-232.97 0,-466.48 0,-700 0,-233.51 0,-467.55 0,-701.06 100.65,-4.24 198.11,-8.47 297.17,-10.06zm3602.78 260.52c0,181.62 0,362.71 0,543.8 -242.84,-29.12 -485.7,-55.6 -728.54,-81.01 0,347.35 0,695.23 0,1042.06 0,346.82 0,694.71 0,1041.53 0,347.36 0,694.71 0,1041.53 0,346.83 0,694.71 0,1041.54 -99.06,8.47 -198.11,15.36 -297.17,22.77 0,-351.07 0,-703.18 0,-1054.25 0,-351.06 0,-702.64 0,-1053.71 0,-351.06 0,-703.18 0,-1054.24 0,-351.06 0,-703.18 0,-1054.77 -244.45,-21.71 -487.3,-38.66 -730.15,-56.13 0,-194.86 0,-389.71 0,-584.57 584.76,54 1169.51,122.84 1755.85,205.45zm1318.09 112.78c381.85,79.96 664.64,369.06 848.37,850.38 71.9,182.68 126.88,386.7 161.37,608.94 34.2,220.41 54.32,462.78 54.32,726.47 0,285.41 -23.2,546.85 -62.31,786.32 -39.17,239.73 -102.25,460.14 -185.33,659.23 -191.72,479.2 -466.52,747.65 -822.81,796.37 -332.31,42.36 -592.74,-145.61 -786.06,-575.04 -84.67,-212.33 -150.97,-455.79 -191.72,-731.78 -40.71,-275.75 -62.31,-584.04 -62.31,-921.34 0,-303.93 20.02,-585.73 54.32,-841.38 34.39,-256.38 91.07,-486.09 164.56,-692.06 185.33,-517.86 461.73,-738.13 827.6,-666.12zm28.75 3916.74c258.83,-24.35 445.76,-215.51 560.79,-566.56 57.52,-173.15 100.66,-358.48 129.41,-552.28 28.74,-193.8 43.14,-400.3 43.14,-618.99 0,-231.39 -18.41,-440.95 -49.54,-630.11 -31.17,-189.42 -83.08,-362.18 -148.58,-513.62 -134.21,-309.75 -316.35,-486.08 -546.41,-525.26 -223.68,-36.54 -407.41,87.36 -548,375.42 -71.9,147.73 -123.93,335.58 -158.18,561.81 -34.45,227.55 -52.72,495.61 -52.72,800.61 0,245.16 12.82,470.43 43.14,674.59 30.39,204.62 76.69,389.18 137.4,552.27 121.42,321.94 317.94,467.55 589.54,442.14zm2557.9 -1732.54c137.4,9 246.04,-23.83 325.93,-96.36 79.88,-70.96 121.42,-205.98 121.42,-406.66 0,-215.51 -57.52,-373.84 -169.36,-474.97 -59.11,-54.01 -139,-93.2 -239.65,-114.38 -238.06,-49.78 -477.71,-99.01 -715.76,-146.67 0,200.15 0,399.24 0,598.34 0,199.62 0,398.71 0,598.34 225.27,13.77 450.55,28.06 677.42,42.36z"/>
  </g>
 </g>
</svg>
