<?xml version="1.0" encoding="UTF-8"?>
<!DOCTYPE svg PUBLIC "-//W3C//DTD SVG 1.1//EN" "http://www.w3.org/Graphics/SVG/1.1/DTD/svg11.dtd">
<!-- Creator: CorelDRAW -->
<svg xmlns="http://www.w3.org/2000/svg" xml:space="preserve" width="169.263mm" height="44.9682mm" version="1.1" style="shape-rendering:geometricPrecision; text-rendering:geometricPrecision; image-rendering:optimizeQuality; fill-rule:evenodd; clip-rule:evenodd"
viewBox="0 0 16912.03 4493.03"
 xmlns:xlink="http://www.w3.org/1999/xlink"
 xmlns:xodm="http://www.corel.com/coreldraw/odm/2003">
 <defs>
  <style type="text/css">
   <![CDATA[
    .fil1 {fill:none}
    .fil0 {fill:#00A3E9}
    .fil2 {fill:#00A3E9;fill-rule:nonzero}
   ]]>
  </style>
 </defs>
 <g id="圖層_x0020_1">
  <metadata id="CorelCorpID_0Corel-Layer"/>
  <g id="fish">
   <path class="fil0" d="M13905.35 348.3c353.76,82.16 862.92,209.62 1318.75,429.04 834.64,401.78 1804.28,967.5 1676.53,1240.06 -293.43,626.01 -678.57,655.81 -2117.44,1612.22 -275.52,183.14 -572.91,342.5 -877.84,475.83l0 -3757.14zm-10743.39 3301.14c-256.31,111.91 -540.42,230.44 -794.48,300.03 -967.08,264.93 -2367.48,376.15 -2367.48,287.02 0,-287.12 2476.02,-1720.93 2571.92,-2049.53 67.98,-232.98 -2087.88,-2024.8 -1898.68,-2170.37 78.76,-60.61 1440.36,135.5 2137.92,507.39 126.56,67.47 242.87,140.36 350.79,215.6l0 2909.87zm11633.72 -2782.76c34.47,83.8 -103.02,438.2 -100.71,716.94 2.47,296.31 -10.89,728.38 -1.59,899.32l24.2 444.64 289.82 181.07c86.6,54.09 -355.43,115.94 -426.63,47.41 -40.55,-39.02 -68.52,-88.83 -104.41,-135.38 -111.84,-145.08 -65.75,-207.72 -74.98,-216.47 -17.56,-16.66 -5.02,-78.33 -17.03,-167.45 -59.08,-438.53 124.76,-1357.49 268.04,-1563.78 143.28,-206.3 143.28,-206.3 143.28,-206.3zm556.75 389.5c134.86,0 244.17,109.32 244.17,244.17 0,134.86 -109.32,244.17 -244.17,244.17 -134.86,0 -244.17,-109.32 -244.17,-244.17 0,-134.86 109.32,-244.17 244.17,-244.17z"/>
   <path class="fil1" d="M15352.43 1256.18c134.86,0 244.17,109.32 244.17,244.17 0,134.86 -109.32,244.17 -244.17,244.17 -134.86,0 -244.17,-109.32 -244.17,-244.17 0,-134.86 109.32,-244.17 244.17,-244.17z"/>
   <path class="fil1" d="M14795.67 866.68c34.47,83.8 -103.02,438.2 -100.71,716.94 2.47,296.31 -10.89,728.38 -1.59,899.32l24.2 444.64 289.82 181.07c86.6,54.09 -355.43,115.94 -426.63,47.41 -40.55,-39.02 -68.52,-88.83 -104.41,-135.38 -111.84,-145.08 -65.75,-207.72 -74.98,-216.47 -17.56,-16.66 -5.02,-78.33 -17.03,-167.45 -59.08,-438.53 124.76,-1357.49 268.04,-1563.78 143.28,-206.3 143.28,-206.3 143.28,-206.3z"/>
   <path class="fil2" d="M3426.73 2592.7c4.23,144.54 23.24,260.99 57.04,343.91 63.39,150.43 175.37,200.27 335.96,156.78 72.89,-20.39 138.38,-11.33 197.55,-10.88 114.09,2.72 171.15,-64.34 171.15,-201.18 0,-102.85 -24.3,-188.94 -71.84,-259.17 -49.66,-72.5 -125.71,-156.33 -230.31,-245.13l-191.22 -98.78c-125.72,-71.59 -214.46,-145 -266.23,-216.59 -89.79,-130.04 -135.22,-308.57 -135.22,-533.76 0,-243.33 44.36,-418.68 132.05,-513.83 88.74,-77.93 212.35,-41.68 373.98,101.04 148.96,130.04 274.67,282.73 379.26,457.18 103.53,161.75 155.3,341.19 155.3,546.45l-180.66 -105.12c-9.5,-106.94 -29.58,-199.37 -61.27,-276.4 -58.1,-144.09 -157.41,-273.23 -297.92,-378.35 -113.03,-84.28 -194.39,-104.66 -244.03,-57.99 -49.66,50.29 -73.96,133.21 -73.96,244.22 0,122.79 28.54,224.74 86.63,302.68 38.04,49.39 123.62,122.34 256.72,216.59l199.67 167.2c95.07,90.16 169.03,174.89 221.85,253.74 89.79,130.04 134.17,273.23 134.17,436.8 0,202.99 -57.05,327.59 -171.15,372.91 -114.09,38.52 -246.16,24.92 -397.24,41.24 -176.42,72.95 -314.81,51.2 -414.12,-76.13 -99.3,-140.01 -147.9,-363.39 -146.85,-660.63l180.66 -6.79zm1320.56 -926.16l1032.16 -66.6 0 262.81 -845.17 39.87 0 585.42 781.77 26.29 0 246.03 -781.77 -48.94 0 653.84 859.96 121.89 0 255.55 -1046.95 -193.48 0 -1882.67zm1426.21 -152.24l1033.21 -247.85 0 317.63 -846.22 173.08 0 706.85 782.83 -86.09 0 297.24 -782.83 58.45 0 789.32 861 24.92 0 309.02 -1048 -73.41 0 -2269.17zm1866.75 -463.53l982.49 -262.35 0 388.31 -791.27 179.43 0 882.21 695.14 -88.36 0 373.37 -695.14 61.62 0 1322.18 -191.22 -9.52 0 -2846.88zm1909 -599.91c250.38,-66.15 435.25,96.06 555.69,495.7 92.96,318.53 140.51,745.81 140.51,1272.78 0,570.92 -53.88,1038.98 -161.64,1398.3 -125.71,409.6 -305.31,584.06 -538.79,537.84 -217.63,-32.17 -388.77,-223.83 -513.44,-572.28 -111.98,-325.34 -166.91,-728.6 -166.91,-1216.15 0,-439.97 47.53,-824.66 142.61,-1159.05 121.5,-437.7 303.2,-693.71 541.96,-757.14zm19.01 3282.77c169.04,24.47 291.58,-111.47 367.64,-415.05 75.02,-309.02 113.04,-672.86 113.04,-1088.36 0,-438.16 -43.31,-786.6 -131,-1038.53 -87.69,-246.95 -206.01,-352.52 -357.08,-319.9 -146.85,31.72 -266.23,178.53 -359.19,438.16 -91.92,254.65 -138.4,608.98 -138.4,1069.34 0,367.92 39.1,678.76 119.38,935.21 79.24,260.54 208.12,399.19 385.61,419.13zm1626.93 -3682.87c250.39,-50.76 435.25,156.32 555.69,651.11 92.97,378.35 140.51,858.19 140.51,1440.44 0,630.73 -53.88,1160.41 -161.63,1592.68 -125.72,509.29 -305.32,758.05 -538.8,744.46 -217.63,-26.29 -388.77,-260.09 -513.44,-687.82 -111.98,-404.63 -166.91,-898.06 -166.91,-1488.92 0,-532.41 47.54,-994.12 142.61,-1389.69 121.51,-518.81 303.21,-810.62 541.96,-862.26zm19.02 3922.11c169.03,4.99 291.57,-177.16 367.64,-546.9 75.01,-371.55 113.03,-793.85 113.03,-1269.16 0,-502.05 -43.31,-907.58 -131,-1204.37 -87.68,-291.8 -206.01,-424.11 -357.08,-397.82 -146.85,26.73 -266.23,192.57 -359.19,497.96 -91.91,300.42 -138.39,726.34 -138.39,1283.66 0,445.86 39.09,823.76 119.37,1137.76 79.24,317.17 208.12,485.73 385.62,498.87zm1559.32 -299.05c65.49,-14.5 118.32,-45.76 160.58,-91.98 73.94,-85.19 135.23,-226.1 182.76,-425.01 38.04,-157.24 65.5,-353.43 81.35,-587.24 10.56,-139.55 14.79,-267.78 14.79,-386.5 0,-454.47 -34.86,-809.7 -104.59,-1070.24 -69.73,-266.43 -181.71,-414.14 -337.01,-441.33l-340.17 -44.86 0 3118.75 342.29 -71.59zm-535.62 -3540.15l574.71 91.98c194.39,45.77 345.46,261.45 453.22,637.98 95.07,329.86 143.68,734.94 143.68,1223.85 0,377.89 -28.54,724.07 -85.58,1043.05 -99.31,576.81 -270.45,911.2 -513.44,984.61l-572.59 144.54 0 -4126.01z"/>
  </g>
 </g>
</svg>
